<svg width="30" height="28" viewBox="0 0 30 28" fill="none" xmlns="http://www.w3.org/2000/svg">
<path d="M20.6248 7.00032V20.417C20.6248 22.9953 18.3873 25.0837 15.6248 25.0837C12.8623 25.0837 10.6248 22.9953 10.6248 20.417V5.83366C10.6248 4.22366 12.0248 2.91699 13.7498 2.91699C15.4748 2.91699 16.8748 4.22366 16.8748 5.83366V18.0837C16.8748 18.7253 16.3123 19.2503 15.6248 19.2503C14.9373 19.2503 14.3748 18.7253 14.3748 18.0837V7.00032H12.4998V18.0837C12.4998 19.6937 13.8998 21.0003 15.6248 21.0003C17.3498 21.0003 18.7498 19.6937 18.7498 18.0837V5.83366C18.7498 3.25533 16.5123 1.16699 13.7498 1.16699C10.9873 1.16699 8.74976 3.25533 8.74976 5.83366V20.417C8.74976 23.9637 11.8248 26.8337 15.6248 26.8337C19.4248 26.8337 22.4998 23.9637 22.4998 20.417V7.00032H20.6248Z" fill="#424941"/>
</svg>
