<svg width="265" height="37" viewBox="0 0 265 37" fill="none" xmlns="http://www.w3.org/2000/svg">
<rect x="0.470459" y="11.4712" width="5.52885" height="14.6822" rx="2.76442" fill="#AED1AC"/>
<rect x="60.1821" y="11.4712" width="5.52885" height="14.6822" rx="2.76442" fill="#AED1AC"/>
<rect x="30.3262" y="0.70459" width="5.52885" height="35.7266" rx="2.76442" fill="#AED1AC"/>
<rect x="10.4221" y="9.02441" width="5.52885" height="19.0868" rx="2.76442" fill="#AED1AC"/>
<rect x="20.3748" y="6.57764" width="5.52885" height="23.4915" rx="2.76442" fill="#AED1AC"/>
<rect width="5.52885" height="19.0868" rx="2.76442" transform="matrix(-1 0 0 1 56.8652 9.02441)" fill="#AED1AC"/>
<rect width="5.52885" height="23.4915" rx="2.76442" transform="matrix(-1 0 0 1 46.9126 6.57764)" fill="#AED1AC"/>
<rect x="119.891" y="11.4722" width="5.52885" height="14.6822" rx="2.76442" fill="#AED1AC"/>
<rect x="179.603" y="11.4722" width="5.52885" height="14.6822" rx="2.76442" fill="#AED1AC"/>
<rect x="149.747" y="0.705078" width="5.52885" height="35.7266" rx="2.76442" fill="#AED1AC"/>
<rect x="129.844" y="9.0249" width="5.52885" height="19.0868" rx="2.76442" fill="#AED1AC"/>
<rect x="139.795" y="6.57812" width="5.52885" height="23.4915" rx="2.76442" fill="#AED1AC"/>
<rect width="5.52885" height="19.0868" rx="2.76442" transform="matrix(-1 0 0 1 176.286 9.0249)" fill="#AED1AC"/>
<rect width="5.52885" height="23.4915" rx="2.76442" transform="matrix(-1 0 0 1 166.334 6.57812)" fill="#AED1AC"/>
<rect x="239.316" y="11.4712" width="5.52885" height="14.6822" rx="2.76442" fill="#AED1AC"/>
<rect x="209.458" y="0.705078" width="5.52885" height="35.7266" rx="2.76442" fill="#AED1AC"/>
<rect x="189.554" y="9.0249" width="5.52885" height="19.0868" rx="2.76442" fill="#AED1AC"/>
<rect x="199.507" y="6.57812" width="5.52885" height="23.4915" rx="2.76442" fill="#AED1AC"/>
<rect width="5.52885" height="19.0868" rx="2.76442" transform="matrix(-1 0 0 1 235.999 9.02441)" fill="#AED1AC"/>
<rect width="5.52885" height="23.4915" rx="2.76442" transform="matrix(-1 0 0 1 226.048 6.57764)" fill="#AED1AC"/>
<rect x="249.269" y="9.51367" width="5.52885" height="19.0868" rx="2.76442" fill="#AED1AC"/>
<rect x="259.22" y="7.06689" width="5.52885" height="23.4915" rx="2.76442" fill="#AED1AC"/>
<rect x="90.0378" y="0.70459" width="5.52885" height="35.7266" rx="2.76442" fill="#AED1AC"/>
<rect x="70.1338" y="9.02441" width="5.52885" height="19.0868" rx="2.76442" fill="#AED1AC"/>
<rect x="80.0854" y="6.57764" width="5.52885" height="23.4915" rx="2.76442" fill="#AED1AC"/>
<rect width="5.52885" height="19.0868" rx="2.76442" transform="matrix(-1 0 0 1 116.574 9.0249)" fill="#AED1AC"/>
<rect width="5.52885" height="23.4915" rx="2.76442" transform="matrix(-1 0 0 1 106.622 6.57812)" fill="#AED1AC"/>
</svg>
