<svg width="79" height="79" viewBox="0 0 79 79" fill="none" xmlns="http://www.w3.org/2000/svg">
<g clip-path="url(#clip0_124_41)">
<path d="M39.378 45.8487C44.7852 45.8487 49.1175 41.4838 49.1175 36.0766L49.1501 16.5324C49.1501 11.1251 44.7852 6.76025 39.378 6.76025C33.9708 6.76025 29.6059 11.1251 29.6059 16.5324V36.0766C29.6059 41.4838 33.9708 45.8487 39.378 45.8487ZM56.6421 36.0766C56.6421 45.8487 48.3683 52.6891 39.378 52.6891C30.3877 52.6891 22.1139 45.8487 22.1139 36.0766H16.5764C16.5764 47.1842 25.4365 56.37 36.1206 57.9661V68.6503H42.6354V57.9661C53.3195 56.4025 62.1796 47.2168 62.1796 36.0766H56.6421Z" fill="#424941"/>
</g>
<defs>
<clipPath id="clip0_124_41">
<rect width="78.1768" height="78.1768" fill="white" transform="translate(0.289551 0.245605)"/>
</clipPath>
</defs>
</svg>
