<svg width="66" height="67" viewBox="0 0 66 67" fill="none" xmlns="http://www.w3.org/2000/svg">
<path d="M54.8063 42.8877C51.4 42.8877 48.13 42.3427 45.0779 41.3344C44.1242 41.0346 43.0614 41.2526 42.2984 41.9884L36.3033 47.9835C28.5915 44.0594 22.2694 37.7646 18.3453 30.0255L24.3404 24.0032C25.1034 23.2946 25.3214 22.2319 25.0217 21.2781C24.0134 18.2261 23.4684 14.956 23.4684 11.5497C23.4684 10.051 22.2421 8.82471 20.7434 8.82471H11.2057C9.70698 8.82471 8.48071 10.051 8.48071 11.5497C8.48071 37.1378 29.2182 57.8754 54.8063 57.8754C56.3051 57.8754 57.5314 56.6491 57.5314 55.1503V45.6127C57.5314 44.1139 56.3051 42.8877 54.8063 42.8877ZM52.0813 33.35H57.5314C57.5314 19.8066 46.5495 8.82471 33.006 8.82471V14.2748C43.5519 14.2748 52.0813 22.8041 52.0813 33.35ZM41.1811 33.35H46.6312C46.6312 25.8289 40.5271 19.7249 33.006 19.7249V25.1749C37.5296 25.1749 41.1811 28.8265 41.1811 33.35Z" fill="#424941"/>
</svg>
