<svg width="67" height="66" viewBox="0 0 67 66" fill="none" xmlns="http://www.w3.org/2000/svg">
<path d="M60.227 31.1385C60.227 27.8088 59.5711 24.5116 58.2969 21.4354C57.0226 18.3591 55.155 15.5639 52.8005 13.2094C50.446 10.8549 47.6508 8.98727 44.5746 7.71303C41.4983 6.4388 38.2011 5.78296 34.8714 5.78296L34.8714 13.3966C37.2013 13.3966 39.5084 13.8555 41.661 14.7471C43.8135 15.6387 45.7694 16.9456 47.4168 18.5931C49.0643 20.2406 50.3712 22.1964 51.2628 24.349C52.1544 26.5015 52.6133 28.8086 52.6133 31.1385H60.227Z" fill="#424941"/>
<path d="M60.227 35.0859C60.227 38.4156 59.5711 41.7127 58.2969 44.789C57.0226 47.8653 55.155 50.6605 52.8005 53.0149C50.446 55.3694 47.6508 57.2371 44.5746 58.5113C41.4983 59.7856 38.2011 60.4414 34.8714 60.4414L34.8714 52.8278C37.2013 52.8278 39.5084 52.3689 41.661 51.4773C43.8135 50.5856 45.7694 49.2788 47.4168 47.6313C49.0643 45.9838 50.3712 44.028 51.2628 41.8754C52.1544 39.7229 52.6133 37.4158 52.6133 35.0859H60.227Z" fill="#424941"/>
<path d="M5.56821 31.1385C5.56821 27.8088 6.22405 24.5116 7.49829 21.4354C8.77252 18.3591 10.6402 15.5639 12.9947 13.2094C15.3492 10.8549 18.1443 8.98727 21.2206 7.71303C24.2969 6.4388 27.594 5.78296 30.9238 5.78296L30.9238 13.3966C28.5939 13.3966 26.2868 13.8555 24.1342 14.7471C21.9817 15.6387 20.0258 16.9456 18.3783 18.5931C16.7308 20.2406 15.424 22.1964 14.5324 24.349C13.6407 26.5015 13.1818 28.8086 13.1818 31.1385H5.56821Z" fill="#424941"/>
<path d="M5.56821 35.0859C5.56821 38.4156 6.22405 41.7127 7.49829 44.789C8.77252 47.8653 10.6402 50.6605 12.9947 53.0149C15.3492 55.3694 18.1443 57.2371 21.2206 58.5113C24.2969 59.7856 27.594 60.4414 30.9238 60.4414L30.9238 52.8278C28.5939 52.8278 26.2868 52.3689 24.1342 51.4773C21.9817 50.5856 20.0258 49.2788 18.3783 47.6313C16.7308 45.9838 15.424 44.028 14.5324 41.8754C13.6407 39.7229 13.1818 37.4158 13.1818 35.0859H5.56821Z" fill="#424941"/>
<circle cx="33.3598" cy="33.5754" r="14.8227" fill="#424941"/>
</svg>
