<svg width="81" height="83" viewBox="0 0 81 83" fill="none" xmlns="http://www.w3.org/2000/svg">
<path d="M52.0357 48.3695H49.3836L48.4436 47.4367C51.7336 43.498 53.7143 38.3847 53.7143 32.8222C53.7143 20.4189 43.9451 10.365 31.893 10.365C19.841 10.365 10.0718 20.4189 10.0718 32.8222C10.0718 45.2255 19.841 55.2794 31.893 55.2794C37.298 55.2794 42.2665 53.241 46.0936 49.8551L47.0001 50.8225V53.5519L63.7856 70.7922L68.7877 65.6443L52.0357 48.3695V48.3695ZM31.893 48.3695C23.5338 48.3695 16.786 41.425 16.786 32.8222C16.786 24.2194 23.5338 17.2749 31.893 17.2749C40.2523 17.2749 47.0001 24.2194 47.0001 32.8222C47.0001 41.425 40.2523 48.3695 31.893 48.3695Z" fill="#424941"/>
</svg>
