<svg width="33" height="33" viewBox="0 0 33 33" fill="none" xmlns="http://www.w3.org/2000/svg">
<g clip-path="url(#clip0_136_130)">
<path d="M21.1711 15.0249C22.3027 15.0249 23.22 14.1076 23.22 12.9761C23.22 11.8445 22.3027 10.9272 21.1711 10.9272C20.0396 10.9272 19.1223 11.8445 19.1223 12.9761C19.1223 14.1076 20.0396 15.0249 21.1711 15.0249Z" fill="#424941"/>
<path d="M11.6099 15.0249C12.7414 15.0249 13.6587 14.1076 13.6587 12.9761C13.6587 11.8445 12.7414 10.9272 11.6099 10.9272C10.4783 10.9272 9.56104 11.8445 9.56104 12.9761C9.56104 14.1076 10.4783 15.0249 11.6099 15.0249Z" fill="#424941"/>
<path d="M21.1711 15.0249C22.3027 15.0249 23.22 14.1076 23.22 12.9761C23.22 11.8445 22.3027 10.9272 21.1711 10.9272C20.0396 10.9272 19.1223 11.8445 19.1223 12.9761C19.1223 14.1076 20.0396 15.0249 21.1711 15.0249Z" fill="#424941"/>
<path d="M11.6099 15.0249C12.7414 15.0249 13.6587 14.1076 13.6587 12.9761C13.6587 11.8445 12.7414 10.9272 11.6099 10.9272C10.4783 10.9272 9.56104 11.8445 9.56104 12.9761C9.56104 14.1076 10.4783 15.0249 11.6099 15.0249Z" fill="#424941"/>
<path d="M16.3769 2.73145C8.83721 2.73145 2.73169 8.85062 2.73169 16.3903C2.73169 23.93 8.83721 30.0492 16.3769 30.0492C23.9303 30.0492 30.0494 23.93 30.0494 16.3903C30.0494 8.85062 23.9303 2.73145 16.3769 2.73145ZM16.3906 27.3174C10.3533 27.3174 5.46346 22.4275 5.46346 16.3903C5.46346 10.3531 10.3533 5.46322 16.3906 5.46322C22.4278 5.46322 27.3177 10.3531 27.3177 16.3903C27.3177 22.4275 22.4278 27.3174 16.3906 27.3174ZM16.3906 23.9027C19.5731 23.9027 22.2912 21.9222 23.3839 19.1221H21.1029C20.1604 20.7475 18.4121 21.8539 16.3906 21.8539C14.3691 21.8539 12.6344 20.7475 11.6783 19.1221H9.39722C10.4899 21.9222 13.208 23.9027 16.3906 23.9027Z" fill="#424941"/>
</g>
<defs>
<clipPath id="clip0_136_130">
<rect width="32.7813" height="32.7813" fill="white"/>
</clipPath>
</defs>
</svg>
